<svg width="1451" height="422" viewBox="0 0 1451 422" fill="none" xmlns="http://www.w3.org/2000/svg">
<path d="M346.5 -137.262H-22V211.737H346.5V-137.262Z" fill="#7687A3"/>
<path d="M715 -137.262H346.5V211.737H715V-137.262Z" fill="#293948"/>
<path d="M346.5 -137.262C444.232 -137.262 537.962 -100.492 607.069 -35.0425C676.176 30.4074 715 119.177 715 211.737L346.5 -137.262C346.5 -44.7017 385.324 44.0675 454.431 109.517C523.538 174.967 617.268 211.737 715 211.737" fill="#7687A3"/>
<path d="M1083.5 -136.262H715V212.737H1083.5V-136.262Z" fill="#293948"/>
<path d="M715 211.737C715 119.177 753.824 30.4074 822.931 -35.0425C892.038 -100.492 985.768 -137.262 1083.5 -137.262L715 211.737C812.732 211.737 906.462 174.967 975.569 109.517C1044.68 44.0675 1083.5 -44.7017 1083.5 -137.262" fill="#7687A3"/>
<path d="M1452 -137.262H1083.5V211.737H1452V-137.262Z" fill="#293948"/>
<path d="M1083.5 -137.262C1181.23 -137.262 1274.96 -100.492 1344.07 -35.0425C1413.18 30.4074 1452 119.177 1452 211.737H1083.5" fill="#7687A3"/>
<path d="M346.5 211.737H-22V560.735H346.5V211.737Z" fill="#293948"/>
<path d="M-22 560.735C-22 468.175 16.824 379.406 85.9312 313.956C155.038 248.506 248.768 211.737 346.5 211.737L-22 560.735C75.7323 560.735 169.462 523.966 238.569 458.516C307.676 393.066 346.5 304.297 346.5 211.737" fill="#7687A3"/>
<path d="M715 211.737H346.5V560.735H715V211.737Z" fill="#293948"/>
<path d="M346.5 211.737C346.5 304.297 385.324 393.066 454.431 458.516C523.538 523.966 617.268 560.735 715 560.735V211.737" fill="#7687A3"/>
<path d="M1083 212H715V426H1083V212Z" fill="#293948"/>
<path d="M1452 212H1083V426H1452V212Z" fill="#293948"/>
<path d="M-22 -2.52509H347.766V212.243H-22V-2.52509Z" fill="#293948"/>
</svg>
